# xmcd
#
# Track frame offsets:
#	150
#	16322
#	28102
#	40630
#	56768
#	70636
#	85236
#	97958
#	110788
#	125136
#	139132
#
# Disc length: 1956 seconds
# Revision: 0
# Processed by: cddbd v1.5.2PL0 Copyright (c) Steve Scherf et al.
# Submitted via: dBpowerAMP V12.0
#
DISCID=9407a20b
DTITLE=Larry Gatlin - Love is Just a Game [Monument] (L)
DYEAR=1977
DGENRE=Country
TTITLE0=Love is Just a Game
TTITLE1=Tomorrow
TTITLE2=Anything but Leavin'
TTITLE3=If Practice Makes Perfect
TTITLE4=Everytime a Plane Flies Over Our House
TTITLE5=I Just Wish You Were Someone I Love
TTITLE6=Kiss it all Goodbye
TTITLE7=I Don't Wanna Cry
TTITLE8=It's Love at Last
TTITLE9=Steps
TTITLE10=Alleluia
EXTD=
EXTT0=
EXTT1=
EXTT2=
EXTT3=
EXTT4=
EXTT5=
EXTT6=
EXTT7=
EXTT8=
EXTT9=
EXTT10=
PLAYORDER=
